<svg width="22" height="22" viewBox="0 0 22 22" fill="none" xmlns="http://www.w3.org/2000/svg">
<path d="M6.93333 2.16667C5.68413 2.16667 4.87754 2.16835 4.26364 2.21851C3.67504 2.2666 3.45682 2.34823 3.34969 2.40282C2.942 2.61054 2.61054 2.942 2.40282 3.34969C2.34823 3.45682 2.2666 3.67504 2.21851 4.26364C2.16835 4.87754 2.16667 5.68413 2.16667 6.93333V11.6345L2.63707 11.168C3.04962 10.7587 3.40511 10.4061 3.72142 10.1402C4.05492 9.85974 4.41729 9.61152 4.86216 9.47175C5.52492 9.26353 6.23696 9.27315 6.89385 9.49921C7.33477 9.65094 7.69031 9.90887 8.01611 10.1982C8.32511 10.4726 8.67097 10.8347 9.07231 11.2549L16.983 19.474C17.1333 19.4673 17.2725 19.4588 17.403 19.4482C17.9916 19.4001 18.2098 19.3184 18.317 19.2638C18.7247 19.0561 19.0561 18.7247 19.2638 18.317C19.3184 18.2098 19.4001 17.9916 19.4482 17.403C19.4983 16.7891 19.5 15.9825 19.5 14.7333V6.93333C19.5 5.68413 19.4983 4.87754 19.4482 4.26364C19.4001 3.67504 19.3184 3.45682 19.2638 3.34969C19.0561 2.942 18.7247 2.61054 18.317 2.40282C18.2098 2.34823 17.9916 2.2666 17.403 2.21851C16.7891 2.16835 15.9825 2.16667 14.7333 2.16667H6.93333ZM2.16667 14.6862V14.7333C2.16667 15.9825 2.16835 16.7891 2.21851 17.403C2.2666 17.9916 2.34823 18.2098 2.40282 18.317C2.61054 18.7247 2.942 19.0561 3.34969 19.2638C3.45682 19.3184 3.67504 19.4001 4.26364 19.4482C4.87754 19.4983 5.68413 19.5 6.93333 19.5H14.0108L7.53467 12.782C7.09595 12.3227 6.81168 12.0263 6.57739 11.8182C6.35245 11.6185 6.24587 11.5676 6.18881 11.548C5.96984 11.4726 5.7325 11.4694 5.51158 11.5388C5.45401 11.5569 5.34609 11.6049 5.11583 11.7985C4.87601 12.0002 4.58383 12.2887 4.13286 12.736L2.16667 14.6862ZM0 6.93333C0 4.50644 0 3.29299 0.472305 2.36604C0.887756 1.55067 1.55067 0.887756 2.36604 0.472305C3.29299 0 4.50644 0 6.93333 0H14.7333C17.1602 0 18.3737 0 19.3006 0.472305C20.116 0.887756 20.7789 1.55067 21.1944 2.36604C21.6667 3.29299 21.6667 4.50644 21.6667 6.93333V14.7333C21.6667 17.1602 21.6667 18.3737 21.1944 19.3006C20.7789 20.116 20.116 20.7789 19.3006 21.1944C18.3737 21.6667 17.1602 21.6667 14.7333 21.6667H6.93333C4.50644 21.6667 3.29299 21.6667 2.36604 21.1944C1.55067 20.7789 0.887756 20.116 0.472305 19.3006C0 18.3737 0 17.1602 0 14.7333V6.93333ZM14.625 4.33333C13.1292 4.33333 11.9167 5.54589 11.9167 7.04167C11.9167 8.53744 13.1292 9.75 14.625 9.75C16.1208 9.75 17.3333 8.53744 17.3333 7.04167C17.3333 5.54589 16.1208 4.33333 14.625 4.33333Z" fill="black"/>
</svg>
