<svg width="140" height="120" viewBox="0 0 140 120" fill="none" xmlns="http://www.w3.org/2000/svg">
<path d="M88.4814 63.2083C88.4814 73.4256 80.1986 81.7083 69.9814 81.7083C59.7641 81.7083 51.4814 73.4256 51.4814 63.2083C51.4814 52.9911 59.7641 44.7083 69.9814 44.7083C80.1986 44.7083 88.4814 52.9911 88.4814 63.2083Z" fill="black"/>
<path fill-rule="evenodd" clip-rule="evenodd" d="M26.7802 15.4989C14.7592 17.3021 5.1369 26.408 2.67414 38.3114C-0.727179 54.7511 -0.885368 71.6968 2.20844 88.1971L2.62016 90.393C5.1046 103.643 15.7311 113.853 29.0702 115.805L34.8343 116.648C58.1416 120.059 81.8212 120.059 105.128 116.648L110.893 115.805C124.232 113.853 134.858 103.643 137.343 90.393L137.754 88.1971C140.848 71.6968 140.69 54.7511 137.289 38.3114C134.826 26.408 125.204 17.3021 113.183 15.4989L106.457 14.4901C103.773 14.0875 101.248 12.9679 99.1472 11.2493L96.0015 8.67559C93.102 6.30326 91.6522 5.11702 90.1005 4.1563C86.761 2.08861 83.0206 0.75342 79.1266 0.239012C77.3173 0 75.4441 0 71.6977 0H68.2651C64.5187 0 62.6454 0 60.8362 0.239012C56.9422 0.75342 53.2017 2.08861 49.8622 4.1563C48.3106 5.11702 46.8608 6.30319 43.9613 8.67553L40.8155 11.2493C38.7151 12.9679 36.1897 14.0875 33.5058 14.4901L26.7802 15.4989ZM100.815 63.2083C100.815 80.2371 87.0102 94.0417 69.9814 94.0417C52.9526 94.0417 39.148 80.2371 39.148 63.2083C39.148 46.1796 52.9526 32.375 69.9814 32.375C87.0102 32.375 100.815 46.1796 100.815 63.2083Z" fill="black"/>
</svg>
