<svg width="36" height="36" viewBox="0 0 36 36" fill="none" xmlns="http://www.w3.org/2000/svg">
<rect width="36" height="36" rx="18" fill="#00A2C9"/>
<path d="M20.4999 17.9997C20.4999 19.3804 19.3806 20.4997 17.9999 20.4997C16.6192 20.4997 15.4999 19.3804 15.4999 17.9997C15.4999 16.619 16.6192 15.4997 17.9999 15.4997C19.3806 15.4997 20.4999 16.619 20.4999 17.9997Z" fill="white"/>
<path fill-rule="evenodd" clip-rule="evenodd" d="M12.1619 11.5525C10.5375 11.7961 9.23714 13.0267 8.90434 14.6352C8.4447 16.8568 8.42332 19.1468 8.84141 21.3765L8.89704 21.6733C9.23278 23.4639 10.6688 24.8435 12.4714 25.1073L13.2503 25.2213C16.3999 25.6822 19.5999 25.6822 22.7495 25.2213L23.5284 25.1073C25.331 24.8435 26.767 23.4639 27.1028 21.6733L27.1584 21.3765C27.5765 19.1468 27.5551 16.8568 27.0955 14.6352C26.7627 13.0267 25.4624 11.7961 23.8379 11.5525L22.929 11.4161C22.5664 11.3617 22.2251 11.2104 21.9412 10.9782L21.5161 10.6304C21.1243 10.3098 20.9284 10.1495 20.7187 10.0197C20.2674 9.74025 19.762 9.55982 19.2358 9.49031C18.9913 9.45801 18.7381 9.45801 18.2318 9.45801H17.768C17.2617 9.45801 17.0086 9.45801 16.7641 9.49031C16.2379 9.55982 15.7324 9.74025 15.2811 10.0197C15.0714 10.1495 14.8755 10.3098 14.4837 10.6304L14.0586 10.9782C13.7747 11.2104 13.4335 11.3617 13.0708 11.4161L12.1619 11.5525ZM22.1666 17.9997C22.1666 20.3009 20.3011 22.1663 17.9999 22.1663C15.6987 22.1663 13.8332 20.3009 13.8332 17.9997C13.8332 15.6985 15.6987 13.833 17.9999 13.833C20.3011 13.833 22.1666 15.6985 22.1666 17.9997Z" fill="white"/>
</svg>
