<svg width="24" height="24" viewBox="0 0 24 24" fill="none" xmlns="http://www.w3.org/2000/svg">
<path d="M8.125 11.375C9.02246 11.375 9.75 10.405 9.75 9.20833C9.75 8.01172 9.02246 7.04167 8.125 7.04167C7.22754 7.04167 6.5 8.01172 6.5 9.20833C6.5 10.405 7.22754 11.375 8.125 11.375Z" fill="black"/>
<path d="M17.3333 9.20833C17.3333 10.405 16.6058 11.375 15.7083 11.375C14.8109 11.375 14.0833 10.405 14.0833 9.20833C14.0833 8.01172 14.8109 7.04167 15.7083 7.04167C16.6058 7.04167 17.3333 8.01172 17.3333 9.20833Z" fill="black"/>
<path d="M7.75786 14.4119C7.7176 14.1687 7.93838 13.9784 8.18261 14.0116C11.6458 14.625 12.1875 14.625 15.6507 14.0116C15.895 13.9784 16.1157 14.1687 16.0755 14.4119C15.795 16.1061 14.0399 17.875 11.9167 17.875C9.79343 17.875 8.03835 16.1061 7.75786 14.4119Z" fill="black"/>
<path fill-rule="evenodd" clip-rule="evenodd" d="M11.9167 0C5.33527 0 0 5.33527 0 11.9167C0 18.4981 5.33527 23.8333 11.9167 23.8333C18.4981 23.8333 23.8333 18.4981 23.8333 11.9167C23.8333 5.33527 18.4981 0 11.9167 0ZM2.16667 11.9167C2.16667 6.53189 6.53189 2.16667 11.9167 2.16667C17.3014 2.16667 21.6667 6.53189 21.6667 11.9167C21.6667 17.3014 17.3014 21.6667 11.9167 21.6667C6.53189 21.6667 2.16667 17.3014 2.16667 11.9167Z" fill="black"/>
</svg>
