<svg width="24" height="24" viewBox="0 0 24 24" fill="none" xmlns="http://www.w3.org/2000/svg">
<path d="M3.05371 3.10538C5.92644 1.67261 9.85843 1.24172 12.5811 3.18643C14.7671 4.74786 17.7947 4.20374 20.0527 3.10538C20.7058 2.77912 21.5 3.27041 21.5 3.99991V14.9999C21.5 15.3786 21.286 15.7251 20.9473 15.8944C18.0372 17.3495 14.2034 17.8023 11.4189 15.8134C9.40399 14.3741 6.65886 14.8072 4.5 15.6562V21.9999C4.49998 22.276 4.27613 22.4999 4 22.4999H3C2.72387 22.4999 2.50002 22.276 2.5 21.9999V3.99991C2.5 3.6245 2.71794 3.27311 3.05371 3.10538ZM11.4189 4.81339C9.41587 3.38263 6.65726 3.80786 4.5 4.65616V13.5312C7.13455 12.6639 10.2247 12.5033 12.5811 14.1864C14.596 15.6256 17.3412 15.1926 19.5 14.3437V5.46866C16.8655 6.33594 13.7753 6.49647 11.4189 4.81339Z" fill="black"/>
</svg>
