<svg width="24" height="24" viewBox="0 0 24 24" fill="none" xmlns="http://www.w3.org/2000/svg">
<path d="M7.04167 6.5C6.74251 6.5 6.5 6.74251 6.5 7.04167V8.125C6.5 8.42415 6.74251 8.66667 7.04167 8.66667H8.125C8.42415 8.66667 8.66667 8.42415 8.66667 8.125V7.04167C8.66667 6.74251 8.42415 6.5 8.125 6.5H7.04167Z" fill="black"/>
<path d="M6.5 15.7083C6.5 15.4092 6.74251 15.1667 7.04167 15.1667H16.7917C17.0908 15.1667 17.3333 15.4092 17.3333 15.7083V16.7917C17.3333 17.0908 17.0908 17.3333 16.7917 17.3333H7.04167C6.74251 17.3333 6.5 17.0908 6.5 16.7917V15.7083Z" fill="black"/>
<path d="M7.04167 10.8333C6.74251 10.8333 6.5 11.0758 6.5 11.375V12.4583C6.5 12.7575 6.74251 13 7.04167 13H8.125C8.42415 13 8.66667 12.7575 8.66667 12.4583V11.375C8.66667 11.0758 8.42415 10.8333 8.125 10.8333H7.04167Z" fill="black"/>
<path d="M10.8333 7.04167C10.8333 6.74251 11.0758 6.5 11.375 6.5H12.4583C12.7575 6.5 13 6.74251 13 7.04167V8.125C13 8.42415 12.7575 8.66667 12.4583 8.66667H11.375C11.0758 8.66667 10.8333 8.42415 10.8333 8.125V7.04167Z" fill="black"/>
<path d="M11.375 10.8333C11.0758 10.8333 10.8333 11.0758 10.8333 11.375V12.4583C10.8333 12.7575 11.0758 13 11.375 13H12.4583C12.7575 13 13 12.7575 13 12.4583V11.375C13 11.0758 12.7575 10.8333 12.4583 10.8333H11.375Z" fill="black"/>
<path d="M15.1667 7.04167C15.1667 6.74251 15.4092 6.5 15.7083 6.5H16.7917C17.0908 6.5 17.3333 6.74251 17.3333 7.04167V8.125C17.3333 8.42415 17.0908 8.66667 16.7917 8.66667H15.7083C15.4092 8.66667 15.1667 8.42415 15.1667 8.125V7.04167Z" fill="black"/>
<path d="M15.7083 10.8333C15.4092 10.8333 15.1667 11.0758 15.1667 11.375V12.4583C15.1667 12.7575 15.4092 13 15.7083 13H16.7917C17.0908 13 17.3333 12.7575 17.3333 12.4583V11.375C17.3333 11.0758 17.0908 10.8333 16.7917 10.8333H15.7083Z" fill="black"/>
<path d="M11.9167 0C5.33527 0 0 5.33527 0 11.9167C0 18.4981 5.33527 23.8333 11.9167 23.8333C18.4981 23.8333 23.8333 18.4981 23.8333 11.9167C23.8333 5.33527 18.4981 0 11.9167 0ZM2.16667 11.9167C2.16667 6.53189 6.53189 2.16667 11.9167 2.16667C17.3014 2.16667 21.6667 6.53189 21.6667 11.9167C21.6667 17.3014 17.3014 21.6667 11.9167 21.6667C6.53189 21.6667 2.16667 17.3014 2.16667 11.9167Z" fill="black"/>
</svg>
