<svg width="20" height="24" viewBox="0 0 20 24" fill="none" xmlns="http://www.w3.org/2000/svg">
<path d="M4.875 4.875C4.875 2.18261 7.05761 0 9.75 0C12.4424 0 14.625 2.18261 14.625 4.875V11.375C14.625 14.0674 12.4424 16.25 9.75 16.25C7.05761 16.25 4.875 14.0674 4.875 11.375V4.875ZM12.4583 4.875C12.4583 3.37923 11.2458 2.16667 9.75 2.16667C8.25423 2.16667 7.04167 3.37923 7.04167 4.875V11.375C7.04167 12.8708 8.25423 14.0833 9.75 14.0833C11.2458 14.0833 12.4583 12.8708 12.4583 11.375V4.875Z" fill="black"/>
<path d="M1.3 8.12394C1.60336 8.12394 1.75504 8.12394 1.87091 8.18298C1.97283 8.23491 2.0557 8.31778 2.10763 8.4197C2.16667 8.53557 2.16667 8.68725 2.16667 8.99061V11.1357C2.16667 11.6524 2.16704 11.8689 2.17632 12.0459C2.36494 15.645 5.24069 18.5208 8.8398 18.7094C9.0168 18.7186 9.23333 18.719 9.75 18.719C10.2667 18.719 10.4832 18.7186 10.6602 18.7094C14.2593 18.5208 17.1351 15.645 17.3237 12.0459C17.333 11.8689 17.3333 11.6524 17.3333 11.1357V8.99061C17.3333 8.68725 17.3333 8.53557 17.3924 8.4197C17.4443 8.31778 17.5272 8.23491 17.6291 8.18298C17.745 8.12394 17.8966 8.12394 18.2 8.12394H18.6333C18.9367 8.12394 19.0884 8.12394 19.2042 8.18298C19.3062 8.23491 19.389 8.31778 19.441 8.4197C19.5 8.53557 19.5 8.68725 19.5 8.99061V11.1756C19.5 11.6407 19.5 11.9182 19.4874 12.1593C19.2418 16.8459 15.5119 20.5945 10.8333 20.8697V22.9656C10.8333 23.269 10.8333 23.4206 10.7743 23.5365C10.7224 23.6384 10.6395 23.7213 10.5376 23.7732C10.4217 23.8323 10.27 23.8323 9.96667 23.8323H9.53333C9.22997 23.8323 9.07829 23.8323 8.96242 23.7732C8.8605 23.7213 8.77764 23.6384 8.72571 23.5365C8.66667 23.4206 8.66667 23.269 8.66667 22.9656V20.8697C3.98808 20.5945 0.258237 16.8459 0.0126217 12.1593C-1.37366e-05 11.9182 -8.42849e-06 11.6407 4.64319e-07 11.1757V8.99061C4.64319e-07 8.68725 4.64109e-07 8.53557 0.0590401 8.4197C0.110972 8.31778 0.193836 8.23491 0.295757 8.18298C0.411626 8.12394 0.563307 8.12394 0.866669 8.12394H1.3Z" fill="black"/>
</svg>
