<svg width="25" height="24" viewBox="0 0 25 24" fill="none" xmlns="http://www.w3.org/2000/svg">
<path fill-rule="evenodd" clip-rule="evenodd" d="M14.0003 1.14011L16.4341 6.99265L22.7531 7.4994C24.4125 7.6983 25.068 9.69274 23.8349 10.8287L19.0207 14.9526L20.4918 21.1183C20.883 22.7586 19.0983 24.055 17.6592 23.176L12.2499 19.872L6.84063 23.176C5.40151 24.055 3.61675 22.7586 4.00799 21.1183L5.47853 14.9526L0.664892 10.8287C-0.615312 9.73167 0.0660333 7.63436 1.74664 7.4994L8.0652 6.99265L10.4995 1.14011C11.1998 -0.380026 13.3 -0.380047 14.0003 1.14011ZM10.0023 7.97759C9.72928 8.634 9.11186 9.0824 8.40321 9.13922L2.56866 9.60683L7.01414 13.4149C7.54949 13.9039 7.76706 14.5845 7.6251 15.2943L6.2667 20.9876L11.2618 17.9365C11.8928 17.5805 12.607 17.5805 13.238 17.9365L18.2326 20.9876L16.8752 15.2943C16.337 13.0368 20.5451 10.7938 21.9306 9.60683L16.0966 9.13922C15.3772 9.0815 14.7915 8.6222 14.4975 7.97759L12.2499 2.57362L10.0023 7.97759Z" fill="black"/>
</svg>
