<svg width="23" height="23" viewBox="0 0 23 23" fill="none" xmlns="http://www.w3.org/2000/svg">
<path fill-rule="evenodd" clip-rule="evenodd" d="M9.92875 2.16667C14.2187 2.16667 17.6962 5.64417 17.6962 9.92875C17.6962 14.2187 14.2187 17.6962 9.92875 17.6962C5.64417 17.6962 2.16667 14.2187 2.16667 9.92875C2.16667 5.64417 5.64417 2.16667 9.92875 2.16667ZM9.92875 0C4.44708 0 0 4.44708 0 9.92875C0 15.4158 4.44708 19.8629 9.92875 19.8629C12.285 19.8629 14.4408 19.045 16.1471 17.68L20.9695 22.4974C21.181 22.7087 21.5239 22.7086 21.7353 22.4972L22.4972 21.7353C22.7086 21.5239 22.7087 21.181 22.4974 20.9695L17.68 16.1471C19.045 14.4408 19.8629 12.285 19.8629 9.92875C19.8629 4.44708 15.4158 0 9.92875 0Z" fill="black"/>
</svg>
