<svg width="24" height="24" viewBox="0 0 24 24" fill="none" xmlns="http://www.w3.org/2000/svg">
<path fill-rule="evenodd" clip-rule="evenodd" d="M10.6425 0.069374C17.1859 -0.634617 23.0616 4.09909 23.7659 10.6425C24.4701 17.1859 19.7362 23.0614 13.1928 23.7659C6.6492 24.4701 0.773654 19.7364 0.0694029 13.1928C-0.634742 6.64925 4.09894 0.773619 10.6425 0.069374ZM9.26283 14.6512C8.28674 14.0846 8.07555 14.6409 7.8263 15.1846C7.53611 15.8177 7.43423 16.197 8.35971 16.6211C9.76172 17.2635 11.27 17.5507 12.813 17.3847C14.356 17.2185 15.7687 16.617 17.0019 15.691C17.9008 15.0158 17.5016 14.5629 17.1423 14.0846C16.7831 13.6064 16.4113 13.2993 15.7003 13.9584C14.7466 14.6744 13.6978 15.1102 12.5812 15.2304C11.4645 15.3506 10.3471 15.1479 9.26283 14.6512ZM17.3237 5.96233C16.4793 5.2863 16.176 5.66038 15.8006 6.12625L14.2162 8.0929C13.8408 8.55881 13.9142 9.24064 14.3801 9.61601L16.3467 11.2005C17.0353 11.7282 17.432 11.5929 17.8698 11.0365C18.2398 10.5665 18.4705 10.1574 17.7059 9.51344L16.5828 8.60857L17.4876 7.48544C18.0374 6.79939 18.0643 6.55533 17.3237 5.96233ZM7.2082 7.16752C6.84251 7.20688 6.65949 7.2267 6.51933 7.29699C6.29531 7.40947 6.13051 7.61347 6.06825 7.85628C6.02934 8.00819 6.04897 8.19123 6.08832 8.55693L6.33993 10.8947C6.37931 11.2606 6.39906 11.4439 6.46945 11.5841C6.58195 11.8081 6.78639 11.9724 7.02921 12.0346C7.18111 12.0734 7.36419 12.0539 7.72986 12.0145C8.09555 11.9752 8.27858 11.9554 8.41873 11.8851C8.64265 11.7726 8.80701 11.5685 8.86929 11.3258C8.90821 11.1739 8.88853 10.9905 8.84916 10.6247L8.59756 8.28687C8.55819 7.92109 8.53846 7.73816 8.46808 7.598C8.3556 7.37401 8.15164 7.2097 7.90885 7.14744C7.75693 7.10853 7.57395 7.12816 7.2082 7.16752Z" fill="black"/>
</svg>
