<svg width="24" height="24" viewBox="0 0 24 24" fill="none" xmlns="http://www.w3.org/2000/svg">
<path d="M8.125 11.375C9.02246 11.375 9.75 10.5262 9.75 9.47917C9.75 8.43213 9.02246 7.58333 8.125 7.58333C7.22754 7.58333 6.5 8.43213 6.5 9.47917C6.5 10.5262 7.22754 11.375 8.125 11.375Z" fill="black"/>
<path d="M15.1667 11.375C16.0641 11.375 16.7917 10.5262 16.7917 9.47917C16.7917 8.43213 16.0641 7.58333 15.1667 7.58333C14.2692 7.58333 13.5417 8.43213 13.5417 9.47917C13.5417 10.5262 14.2692 11.375 15.1667 11.375Z" fill="black"/>
<path d="M23.2992 14.8733C23.4416 14.7308 23.5428 14.5517 23.5838 14.3544C23.7474 13.5675 23.8333 12.7521 23.8333 11.9167C23.8333 5.33527 18.4981 0 11.9167 0C5.33527 0 0 5.33527 0 11.9167C0 18.4981 5.33527 23.8333 11.9167 23.8333C12.7521 23.8333 13.5675 23.7474 14.3544 23.5838C14.5517 23.5428 14.7308 23.4416 14.8733 23.2992L23.2992 14.8733ZM20.4833 14.625L14.625 20.4833V20.0417C14.625 17.0501 17.0501 14.625 20.0417 14.625H20.4833ZM12.4583 21.6519C12.2792 21.6617 12.0986 21.6667 11.9167 21.6667C6.53189 21.6667 2.16667 17.3014 2.16667 11.9167C2.16667 6.53189 6.53189 2.16667 11.9167 2.16667C17.3014 2.16667 21.6667 6.53189 21.6667 11.9167C21.6667 12.0986 21.6617 12.2792 21.6519 12.4583H20.0417C15.8535 12.4583 12.4583 15.8535 12.4583 20.0417V21.6519Z" fill="black"/>
</svg>
