<svg width="34" height="34" viewBox="0 0 34 34" fill="none" xmlns="http://www.w3.org/2000/svg">
<path d="M0 17C0 7.61116 7.61116 0 17 0V0C26.3888 0 34 7.61116 34 17V17C34 26.3888 26.3888 34 17 34V34C7.61116 34 0 26.3888 0 17V17Z" fill="#E9E9E9"/>
<path d="M13.9375 16.3125C14.5933 16.3125 15.125 15.6922 15.125 14.9271C15.125 14.1619 14.5933 13.5417 13.9375 13.5417C13.2817 13.5417 12.75 14.1619 12.75 14.9271C12.75 15.6922 13.2817 16.3125 13.9375 16.3125Z" fill="black"/>
<path d="M19.0833 16.3125C19.7392 16.3125 20.2708 15.6922 20.2708 14.9271C20.2708 14.1619 19.7392 13.5417 19.0833 13.5417C18.4275 13.5417 17.8958 14.1619 17.8958 14.9271C17.8958 15.6922 18.4275 16.3125 19.0833 16.3125Z" fill="black"/>
<path d="M25.0263 18.869C25.1304 18.7648 25.2043 18.6339 25.2343 18.4898C25.3538 17.9147 25.4167 17.3189 25.4167 16.7083C25.4167 11.8989 21.5178 8 16.7083 8C11.8989 8 8 11.8989 8 16.7083C8 21.5178 11.8989 25.4167 16.7083 25.4167C17.3189 25.4167 17.9147 25.3538 18.4898 25.2343C18.6339 25.2043 18.7648 25.1304 18.869 25.0263L25.0263 18.869ZM22.9686 18.6875L18.6875 22.9686V22.6458C18.6875 20.4597 20.4597 18.6875 22.6458 18.6875H22.9686ZM17.1042 23.8226C16.9732 23.8297 16.8413 23.8333 16.7083 23.8333C12.7733 23.8333 9.58333 20.6434 9.58333 16.7083C9.58333 12.7733 12.7733 9.58333 16.7083 9.58333C20.6434 9.58333 23.8333 12.7733 23.8333 16.7083C23.8333 16.8413 23.8297 16.9732 23.8226 17.1042H22.6458C19.5853 17.1042 17.1042 19.5853 17.1042 22.6458V23.8226Z" fill="black"/>
<circle cx="21.708" cy="21.708" r="5.5" fill="#E9E9E9"/>
<path d="M21.0126 17.7116C20.9785 17.7785 20.9785 17.866 20.9785 18.041V20.9785H18.041C17.866 20.9785 17.7785 20.9785 17.7116 21.0126C17.6528 21.0425 17.605 21.0903 17.5751 21.1491C17.541 21.216 17.541 21.3035 17.541 21.4785V21.9368C17.541 22.1119 17.541 22.1994 17.5751 22.2662C17.605 22.325 17.6528 22.3728 17.7116 22.4028C17.7785 22.4368 17.866 22.4368 18.041 22.4368H20.9785V25.3743C20.9785 25.5494 20.9785 25.6369 21.0126 25.7037C21.0425 25.7625 21.0903 25.8103 21.1491 25.8403C21.216 25.8743 21.3035 25.8743 21.4785 25.8743H21.9368C22.1119 25.8743 22.1994 25.8743 22.2662 25.8403C22.325 25.8103 22.3728 25.7625 22.4028 25.7037C22.4368 25.6369 22.4368 25.5494 22.4368 25.3743V22.4368H25.3743C25.5494 22.4368 25.6369 22.4368 25.7037 22.4028C25.7625 22.3728 25.8103 22.325 25.8403 22.2662C25.8743 22.1994 25.8743 22.1119 25.8743 21.9368V21.4785C25.8743 21.3035 25.8743 21.216 25.8403 21.1491C25.8103 21.0903 25.7625 21.0425 25.7037 21.0126C25.6369 20.9785 25.5494 20.9785 25.3743 20.9785H22.4368V18.041C22.4368 17.866 22.4368 17.7785 22.4028 17.7116C22.3728 17.6528 22.325 17.605 22.2662 17.5751C22.1994 17.541 22.1119 17.541 21.9368 17.541H21.4785C21.3035 17.541 21.216 17.541 21.1491 17.5751C21.0903 17.605 21.0425 17.6528 21.0126 17.7116Z" fill="black"/>
</svg>
